<svg width="50" height="50" viewBox="0 0 50 50" fill="none" xmlns="http://www.w3.org/2000/svg">
<g clip-path="url(#clip0_2659_4646)">
<path d="M50 -0.000244141H0V49.9998H50V-0.000244141Z" fill="#263238"/>
<path d="M10.1836 17.3606H13.4243V23.3791H20.1373V17.3606H23.378V32.6384H20.1373V26.6199H13.4243V32.6384H10.1836V17.3606Z" fill="white"/>
<path d="M36.1944 27.3715C35.4351 28.609 34.1052 29.3976 32.662 29.3976C30.4309 29.3976 28.4712 27.5131 28.4712 24.9995C28.4712 22.4858 30.4309 20.6013 32.662 20.6013C34.1052 20.6013 35.4351 21.3901 36.1944 22.6276L39.6661 22.4398C38.6423 19.4799 35.893 17.3606 32.662 17.3606C28.5578 17.3606 25.2305 20.7806 25.2305 24.9995C25.2305 29.2182 28.5578 32.6384 32.662 32.6384C35.893 32.6384 38.6423 30.5192 39.6661 27.5592L36.1944 27.3715Z" fill="white"/>
</g>
<defs>
<clipPath id="clip0_2659_4646">
<rect width="50" height="50" fill="white"/>
</clipPath>
</defs>
</svg>
